# xmcd
#
# Track frame offsets:
#	150
#	14338
#	32294
#	47822
#	68841
#	83753
#	101776
#	122982
#	135463
#	148771
#	168134
#	191874
#
# Disc length: 2615 seconds
#
# Revision: 1
# Processed by: cddbd v1.5.2PL0 Copyright (c) Steve Scherf et al.
# Submitted via: audiograbber 1.83.01
#
DISCID=a20a350c
DTITLE=Blusberg - Meleme pantem
DYEAR=2008
DGENRE=Blues
TTITLE0=Meleme pantem
TTITLE1=Prach
TTITLE2=Nocni drama
TTITLE3=Kohoutovo blues
TTITLE4=Vizita
TTITLE5=Zpatky to nepujde
TTITLE6=Vanocni pes
TTITLE7=Navrat domu
TTITLE8=Dres a tretry
TTITLE9=Mesto blues
TTITLE10=Peknej sat
TTITLE11=Vincek mele
EXTD=
EXTT0=
EXTT1=
EXTT2=
EXTT3=
EXTT4=
EXTT5=
EXTT6=
EXTT7=
EXTT8=
EXTT9=
EXTT10=
EXTT11=
PLAYORDER=
